<svg width="12" height="11" viewBox="0 0 12 11" fill="none" xmlns="http://www.w3.org/2000/svg">
<path fill-rule="evenodd" clip-rule="evenodd" d="M6.00496 0.158134C2.68437 0.158134 0 2.64039 0 5.71127C0 8.16599 1.71997 10.2439 4.10603 10.9793C4.40435 11.0346 4.51362 10.8598 4.51362 10.7128C4.51362 10.584 4.50378 10.1428 4.50378 9.68299C2.83335 10.014 2.4855 9.02102 2.4855 9.02102C2.21705 8.37743 1.81929 8.21203 1.81929 8.21203C1.27255 7.87185 1.85911 7.87184 1.85911 7.87184C2.46558 7.90863 2.78381 8.44186 2.78381 8.44186C3.32059 9.28763 4.18555 9.04866 4.53353 8.90153C4.58319 8.54296 4.74237 8.29473 4.91138 8.15685C3.57908 8.02811 2.17734 7.55006 2.17734 5.41701C2.17734 4.81021 2.4158 4.31376 2.79365 3.92766C2.73403 3.78978 2.5252 3.21965 2.85338 2.45659C2.85338 2.45659 3.36042 2.30946 4.50366 3.0266C4.99313 2.90505 5.4979 2.84321 6.00496 2.84269C6.512 2.84269 7.02886 2.90712 7.50614 3.0266C8.64951 2.30946 9.15655 2.45659 9.15655 2.45659C9.48473 3.21965 9.27577 3.78978 9.21616 3.92766C9.60396 4.31376 9.83259 4.81021 9.83259 5.41701C9.83259 7.55006 8.43085 8.01886 7.0886 8.15685C7.30739 8.33151 7.49619 8.66244 7.49619 9.18654C7.49619 9.93121 7.48635 10.5289 7.48635 10.7127C7.48635 10.8598 7.59575 11.0346 7.89395 10.9794C10.28 10.2437 12 8.16599 12 5.71127C12.0098 2.64039 9.3156 0.158134 6.00496 0.158134Z" fill="#1F2328"/>
</svg>
