<svg width="80" height="80" viewBox="0 0 80 80" fill="none" xmlns="http://www.w3.org/2000/svg">
<rect x="0.5" y="0.5" width="79" height="79" fill="#A9BACB" stroke="#A9BACB"/>
<path d="M48.5011 26.4615C48.5011 28.7057 47.6055 30.8579 46.0112 32.4447C44.4169 34.0316 42.2546 34.9231 40 34.9231C37.7454 34.9231 35.5831 34.0316 33.9888 32.4447C32.3945 30.8579 31.4989 28.7057 31.4989 26.4615C31.4989 24.2174 32.3945 22.0652 33.9888 20.4783C35.5831 18.8915 37.7454 18 40 18C42.2546 18 44.4169 18.8915 46.0112 20.4783C47.6055 22.0652 48.5011 24.2174 48.5011 26.4615ZM23 58.3175C23.0728 53.8777 24.896 49.6442 28.0761 46.5301C31.2563 43.416 35.5388 41.6708 40 41.6708C44.4612 41.6708 48.7437 43.416 51.9239 46.5301C55.104 49.6442 56.9272 53.8777 57 58.3175C51.6667 60.7516 45.8672 62.0079 40 62C33.9336 62 28.1755 60.6822 23 58.3175Z" stroke="white" stroke-width="2.5" stroke-linecap="round" stroke-linejoin="round"/>
</svg>
