<svg width="26" height="25" viewBox="0 0 26 25" fill="none" xmlns="http://www.w3.org/2000/svg">
<path d="M14.4646 8.59355C15.2644 8.95949 15.9609 9.50403 16.4955 10.1814C17.0302 10.8588 17.3874 11.6493 17.5371 12.4864C17.6869 13.3235 17.6248 14.1828 17.3562 14.9922C17.0875 15.8016 16.6201 16.5374 15.9932 17.1377L10.4548 22.4454C9.41611 23.4408 8.00738 24 6.53848 24C5.06958 24 3.66085 23.4408 2.62218 22.4454C1.58352 21.45 1 20.1 1 18.6923C1 17.2846 1.58352 15.9346 2.62218 14.9392L4.78464 12.8668M21.2154 12.1332L23.3778 10.0608C24.4165 9.06544 25 7.7154 25 6.30771C25 4.90002 24.4165 3.54998 23.3778 2.55459C22.3391 1.5592 20.9304 1 19.4615 1C17.9926 1 16.5839 1.5592 15.5452 2.55459L10.0068 7.86227C9.37987 8.46263 8.91246 9.1984 8.64381 10.0078C8.37515 10.8172 8.3131 11.6765 8.46287 12.5136C8.61264 13.3507 8.96985 14.1412 9.50449 14.8186C10.0391 15.496 10.7356 16.0405 11.5354 16.4065" stroke="url(#paint0_linear_371_6)" stroke-width="1.5" stroke-linecap="round" stroke-linejoin="round"/>
<defs>
<linearGradient id="paint0_linear_371_6" x1="23.0176" y1="1.01454" x2="5.32614" y2="23.8806" gradientUnits="userSpaceOnUse">
<stop stop-color="#3D89B8"/>
<stop offset="1" stop-color="#D0D7DE"/>
</linearGradient>
</defs>
</svg>
