<svg width="80" height="22" viewBox="0 0 80 22" fill="none" xmlns="http://www.w3.org/2000/svg">
<path d="M27.2275 14.9697L29.7764 4.20312H31.2002L31.5254 5.99609L28.8096 17H27.2803L27.2275 14.9697ZM25.918 4.20312L28.0273 14.9697L27.8516 17H26.1465L23.3076 4.20312H25.918ZM33.7666 14.9258L35.8496 4.20312H38.46L35.6299 17H33.9248L33.7666 14.9258ZM32 4.20312L34.5664 15.0137L34.4961 17H32.9668L30.2334 5.9873L30.585 4.20312H32ZM43.8301 17.1758C43.0918 17.1758 42.4297 17.0586 41.8438 16.8242C41.2578 16.584 40.7598 16.2529 40.3496 15.8311C39.9453 15.4092 39.6348 14.9199 39.418 14.3633C39.2012 13.8008 39.0928 13.2031 39.0928 12.5703V12.2188C39.0928 11.498 39.1953 10.8389 39.4004 10.2412C39.6055 9.64355 39.8984 9.125 40.2793 8.68555C40.666 8.24609 41.1348 7.90918 41.6855 7.6748C42.2363 7.43457 42.8574 7.31445 43.5488 7.31445C44.2227 7.31445 44.8203 7.42578 45.3418 7.64844C45.8633 7.87109 46.2998 8.1875 46.6514 8.59766C47.0088 9.00781 47.2783 9.5 47.46 10.0742C47.6416 10.6426 47.7324 11.2754 47.7324 11.9727V13.0273H40.1738V11.3398H45.2451V11.1465C45.2451 10.7949 45.1807 10.4814 45.0518 10.2061C44.9287 9.9248 44.7412 9.70215 44.4893 9.53809C44.2373 9.37402 43.915 9.29199 43.5225 9.29199C43.1885 9.29199 42.9014 9.36523 42.6611 9.51172C42.4209 9.6582 42.2246 9.86328 42.0723 10.127C41.9258 10.3906 41.8145 10.7012 41.7383 11.0586C41.668 11.4102 41.6328 11.7969 41.6328 12.2188V12.5703C41.6328 12.9512 41.6855 13.3027 41.791 13.625C41.9023 13.9473 42.0576 14.2256 42.2568 14.46C42.4619 14.6943 42.708 14.876 42.9951 15.0049C43.2881 15.1338 43.6191 15.1982 43.9883 15.1982C44.4453 15.1982 44.8701 15.1104 45.2627 14.9346C45.6611 14.7529 46.0039 14.4805 46.291 14.1172L47.5215 15.4531C47.3223 15.7402 47.0498 16.0156 46.7041 16.2793C46.3643 16.543 45.9541 16.7598 45.4736 16.9297C44.9932 17.0938 44.4453 17.1758 43.8301 17.1758ZM49.1738 3.5H51.7051V14.8203L51.4502 17H49.1738V3.5ZM57.7256 12.1484V12.333C57.7256 13.042 57.6494 13.6924 57.4971 14.2842C57.3506 14.876 57.1221 15.3887 56.8115 15.8223C56.501 16.25 56.1143 16.584 55.6514 16.8242C55.1943 17.0586 54.6553 17.1758 54.0342 17.1758C53.4541 17.1758 52.9502 17.0586 52.5225 16.8242C52.1006 16.5898 51.7461 16.2588 51.459 15.8311C51.1719 15.4033 50.9404 14.9023 50.7646 14.3281C50.5889 13.7539 50.457 13.127 50.3691 12.4473V12.043C50.457 11.3633 50.5889 10.7363 50.7646 10.1621C50.9404 9.58789 51.1719 9.08691 51.459 8.65918C51.7461 8.23145 52.1006 7.90039 52.5225 7.66602C52.9443 7.43164 53.4424 7.31445 54.0166 7.31445C54.6436 7.31445 55.1885 7.43457 55.6514 7.6748C56.1201 7.90918 56.5068 8.24316 56.8115 8.67676C57.1221 9.10449 57.3506 9.61426 57.4971 10.2061C57.6494 10.792 57.7256 11.4395 57.7256 12.1484ZM55.1943 12.333V12.1484C55.1943 11.7617 55.165 11.3984 55.1064 11.0586C55.0537 10.7129 54.96 10.4111 54.8252 10.1533C54.6904 9.88965 54.5059 9.68164 54.2715 9.5293C54.043 9.37695 53.7471 9.30078 53.3838 9.30078C53.0381 9.30078 52.7451 9.35938 52.5049 9.47656C52.2646 9.59375 52.0654 9.75781 51.9072 9.96875C51.7549 10.1797 51.6406 10.4316 51.5645 10.7246C51.4883 11.0117 51.4414 11.3281 51.4238 11.6738V12.8252C51.4414 13.2881 51.5176 13.6982 51.6523 14.0557C51.793 14.4072 52.0039 14.6855 52.2852 14.8906C52.5723 15.0898 52.9443 15.1895 53.4014 15.1895C53.7588 15.1895 54.0547 15.1191 54.2891 14.9785C54.5234 14.8379 54.7051 14.6387 54.834 14.3809C54.9688 14.123 55.0625 13.8213 55.1152 13.4756C55.168 13.124 55.1943 12.7432 55.1943 12.333ZM61.8301 9.56445V17H59.2988V7.49023H61.6807L61.8301 9.56445ZM64.6953 7.42871L64.6514 9.77539C64.5283 9.75781 64.3789 9.74316 64.2031 9.73145C64.0332 9.71387 63.8779 9.70508 63.7373 9.70508C63.3799 9.70508 63.0693 9.75195 62.8057 9.8457C62.5479 9.93359 62.3311 10.0654 62.1553 10.2412C61.9854 10.417 61.8564 10.6309 61.7686 10.8828C61.6865 11.1348 61.6396 11.4219 61.6279 11.7441L61.1182 11.5859C61.1182 10.9707 61.1797 10.4053 61.3027 9.88965C61.4258 9.36816 61.6045 8.91406 61.8389 8.52734C62.0791 8.14062 62.3721 7.8418 62.7178 7.63086C63.0635 7.41992 63.459 7.31445 63.9043 7.31445C64.0449 7.31445 64.1885 7.32617 64.335 7.34961C64.4814 7.36719 64.6016 7.39355 64.6953 7.42871ZM70.0918 17.1758C69.3535 17.1758 68.6914 17.0586 68.1055 16.8242C67.5195 16.584 67.0215 16.2529 66.6113 15.8311C66.207 15.4092 65.8965 14.9199 65.6797 14.3633C65.4629 13.8008 65.3545 13.2031 65.3545 12.5703V12.2188C65.3545 11.498 65.457 10.8389 65.6621 10.2412C65.8672 9.64355 66.1602 9.125 66.541 8.68555C66.9277 8.24609 67.3965 7.90918 67.9473 7.6748C68.498 7.43457 69.1191 7.31445 69.8105 7.31445C70.4844 7.31445 71.082 7.42578 71.6035 7.64844C72.125 7.87109 72.5615 8.1875 72.9131 8.59766C73.2705 9.00781 73.54 9.5 73.7217 10.0742C73.9033 10.6426 73.9941 11.2754 73.9941 11.9727V13.0273H66.4355V11.3398H71.5068V11.1465C71.5068 10.7949 71.4424 10.4814 71.3135 10.2061C71.1904 9.9248 71.0029 9.70215 70.751 9.53809C70.499 9.37402 70.1768 9.29199 69.7842 9.29199C69.4502 9.29199 69.1631 9.36523 68.9229 9.51172C68.6826 9.6582 68.4863 9.86328 68.334 10.127C68.1875 10.3906 68.0762 10.7012 68 11.0586C67.9297 11.4102 67.8945 11.7969 67.8945 12.2188V12.5703C67.8945 12.9512 67.9473 13.3027 68.0527 13.625C68.1641 13.9473 68.3193 14.2256 68.5186 14.46C68.7236 14.6943 68.9697 14.876 69.2568 15.0049C69.5498 15.1338 69.8809 15.1982 70.25 15.1982C70.707 15.1982 71.1318 15.1104 71.5244 14.9346C71.9229 14.7529 72.2656 14.4805 72.5527 14.1172L73.7832 15.4531C73.584 15.7402 73.3115 16.0156 72.9658 16.2793C72.626 16.543 72.2158 16.7598 71.7354 16.9297C71.2549 17.0938 70.707 17.1758 70.0918 17.1758ZM78.1074 3.5V17H75.5674V3.5H78.1074Z" fill="url(#paint0_linear_298_23)"/>
<path d="M9.97641 7.28247C10.5096 7.53704 10.9739 7.91585 11.3303 8.38707C11.6868 8.8583 11.9249 9.40818 12.0248 9.99053C12.1246 10.5729 12.0832 11.1707 11.9041 11.7337C11.725 12.2968 11.4134 12.8086 10.9955 13.2262L7.30318 16.9185C6.61074 17.611 5.67158 18 4.69232 18C3.71306 18 2.7739 17.611 2.08146 16.9185C1.38901 16.2261 1 15.2869 1 14.3077C1 13.3284 1.38901 12.3893 2.08146 11.6968L3.52309 10.2552M14.4769 9.74482L15.9185 8.30318C16.611 7.61074 17 6.67158 17 5.69232C17 4.71306 16.611 3.7739 15.9185 3.08146C15.2261 2.38901 14.2869 2 13.3077 2C12.3284 2 11.3893 2.38901 10.6968 3.08146L7.00452 6.77375C6.58658 7.19139 6.27497 7.70324 6.09587 8.26628C5.91677 8.82932 5.8754 9.42713 5.97525 10.0095C6.07509 10.5918 6.31323 11.1417 6.66966 11.6129C7.02609 12.0842 7.4904 12.463 8.02359 12.7175" stroke="url(#paint1_linear_298_23)" stroke-width="1.5" stroke-linecap="round" stroke-linejoin="round"/>
<defs>
<linearGradient id="paint0_linear_298_23" x1="51.5" y1="0" x2="51.5" y2="22" gradientUnits="userSpaceOnUse">
<stop stop-color="#D0D7DE"/>
<stop offset="1" stop-color="#404A58"/>
</linearGradient>
<linearGradient id="paint1_linear_298_23" x1="15.6784" y1="2.01011" x2="3.2497" y2="17.4048" gradientUnits="userSpaceOnUse">
<stop stop-color="#D0D7DE"/>
<stop offset="1" stop-color="#404A58"/>
</linearGradient>
</defs>
</svg>
