<svg width="90" height="24" viewBox="0 0 90 24" fill="none" xmlns="http://www.w3.org/2000/svg">
<path d="M31.8535 16.2754L34.6855 4.78125H36.2188L36.3164 7.20312L33.2891 19H31.668L31.8535 16.2754ZM30.0664 4.78125L32.3906 16.2363V19H30.623L27.4004 4.78125H30.0664ZM39.2559 16.1875L41.541 4.78125H44.2168L40.9941 19H39.2266L39.2559 16.1875ZM36.9512 4.78125L39.7832 16.3145L39.9492 19H38.3281L35.3105 7.19336L35.4277 4.78125H36.9512ZM50.1543 19.1953C49.3535 19.1953 48.6341 19.0651 47.9961 18.8047C47.3581 18.5443 46.8145 18.1829 46.3652 17.7207C45.9225 17.252 45.5807 16.7083 45.3398 16.0898C45.1055 15.4648 44.9883 14.7943 44.9883 14.0781V13.6875C44.9883 12.8737 45.1055 12.1348 45.3398 11.4707C45.5742 10.8001 45.9062 10.224 46.3359 9.74219C46.7656 9.26042 47.2799 8.88932 47.8789 8.62891C48.4779 8.36849 49.1387 8.23828 49.8613 8.23828C50.61 8.23828 51.2708 8.36523 51.8438 8.61914C52.4167 8.86654 52.8952 9.2181 53.2793 9.67383C53.6634 10.1296 53.9531 10.6764 54.1484 11.3145C54.3438 11.946 54.4414 12.6458 54.4414 13.4141V14.498H46.1602V12.7207H51.9023V12.5254C51.8893 12.1152 51.8112 11.7409 51.668 11.4023C51.5247 11.0573 51.3034 10.7839 51.0039 10.582C50.7044 10.3737 50.3171 10.2695 49.8418 10.2695C49.4577 10.2695 49.1224 10.3542 48.8359 10.5234C48.556 10.6862 48.3216 10.9206 48.1328 11.2266C47.9505 11.526 47.8138 11.8841 47.7227 12.3008C47.6315 12.7174 47.5859 13.1797 47.5859 13.6875V14.0781C47.5859 14.5208 47.6445 14.931 47.7617 15.3086C47.8854 15.6862 48.0645 16.015 48.2988 16.2949C48.5397 16.5684 48.8262 16.7832 49.1582 16.9395C49.4967 17.0892 49.8809 17.1641 50.3105 17.1641C50.8509 17.1641 51.3392 17.0599 51.7754 16.8516C52.2181 16.6367 52.6022 16.321 52.9277 15.9043L54.2266 17.252C54.0052 17.5775 53.7057 17.89 53.3281 18.1895C52.957 18.4889 52.5078 18.7331 51.9805 18.9219C51.4531 19.1042 50.8444 19.1953 50.1543 19.1953ZM56.1602 4H58.748V16.666L58.4941 19H56.1602V4ZM65.5449 13.6094V13.8145C65.5449 14.6022 65.457 15.3249 65.2812 15.9824C65.112 16.64 64.8548 17.2096 64.5098 17.6914C64.1647 18.1667 63.735 18.5378 63.2207 18.8047C62.7129 19.0651 62.1172 19.1953 61.4336 19.1953C60.7826 19.1953 60.2161 19.0684 59.7344 18.8145C59.2591 18.5605 58.8587 18.2025 58.5332 17.7402C58.2077 17.2715 57.9473 16.7214 57.752 16.0898C57.5566 15.4518 57.4102 14.7552 57.3125 14V13.4434C57.4102 12.6816 57.5566 11.985 57.752 11.3535C57.9473 10.722 58.2077 10.1719 58.5332 9.70312C58.8587 9.23438 59.2591 8.87305 59.7344 8.61914C60.2096 8.36523 60.7695 8.23828 61.4141 8.23828C62.1042 8.23828 62.7064 8.37174 63.2207 8.63867C63.7415 8.89909 64.1712 9.27018 64.5098 9.75195C64.8548 10.2272 65.112 10.7936 65.2812 11.4512C65.457 12.1022 65.5449 12.8216 65.5449 13.6094ZM62.957 13.8145V13.6094C62.957 13.1602 62.9212 12.737 62.8496 12.3398C62.778 11.9362 62.6608 11.5814 62.498 11.2754C62.3353 10.9694 62.1139 10.7285 61.834 10.5527C61.554 10.377 61.2025 10.2891 60.7793 10.2891C60.3757 10.2891 60.0306 10.3574 59.7441 10.4941C59.4642 10.6309 59.2298 10.8197 59.041 11.0605C58.8587 11.3014 58.7155 11.5846 58.6113 11.9102C58.5137 12.2357 58.4486 12.5872 58.416 12.9648V14.4883C58.4616 14.9896 58.569 15.4421 58.7383 15.8457C58.9076 16.2428 59.1582 16.5586 59.4902 16.793C59.8288 17.0273 60.265 17.1445 60.7988 17.1445C61.2155 17.1445 61.5638 17.0632 61.8438 16.9004C62.1237 16.7311 62.3451 16.4967 62.5078 16.1973C62.6706 15.8913 62.7845 15.5365 62.8496 15.1328C62.9212 14.7292 62.957 14.2897 62.957 13.8145ZM69.998 10.5918V19H67.4199V8.43359H69.8613L69.998 10.5918ZM73.2109 8.36523L73.1719 10.7676C73.0286 10.7415 72.8659 10.722 72.6836 10.709C72.5078 10.696 72.3418 10.6895 72.1855 10.6895C71.7884 10.6895 71.4401 10.7448 71.1406 10.8555C70.8411 10.9596 70.5905 11.1126 70.3887 11.3145C70.1934 11.5163 70.0436 11.7637 69.9395 12.0566C69.8353 12.3431 69.7767 12.6686 69.7637 13.0332L69.207 12.9648C69.207 12.2943 69.2754 11.6725 69.4121 11.0996C69.5488 10.5267 69.7474 10.0254 70.0078 9.5957C70.2682 9.16602 70.5938 8.83398 70.9844 8.59961C71.3815 8.35872 71.8372 8.23828 72.3516 8.23828C72.4948 8.23828 72.6478 8.2513 72.8105 8.27734C72.9798 8.29688 73.1133 8.32617 73.2109 8.36523ZM79.1777 19.1953C78.377 19.1953 77.6576 19.0651 77.0195 18.8047C76.3815 18.5443 75.8379 18.1829 75.3887 17.7207C74.946 17.252 74.6042 16.7083 74.3633 16.0898C74.1289 15.4648 74.0117 14.7943 74.0117 14.0781V13.6875C74.0117 12.8737 74.1289 12.1348 74.3633 11.4707C74.5977 10.8001 74.9297 10.224 75.3594 9.74219C75.7891 9.26042 76.3034 8.88932 76.9023 8.62891C77.5013 8.36849 78.1621 8.23828 78.8848 8.23828C79.6335 8.23828 80.2943 8.36523 80.8672 8.61914C81.4401 8.86654 81.9186 9.2181 82.3027 9.67383C82.6868 10.1296 82.9766 10.6764 83.1719 11.3145C83.3672 11.946 83.4648 12.6458 83.4648 13.4141V14.498H75.1836V12.7207H80.9258V12.5254C80.9128 12.1152 80.8346 11.7409 80.6914 11.4023C80.5482 11.0573 80.3268 10.7839 80.0273 10.582C79.7279 10.3737 79.3405 10.2695 78.8652 10.2695C78.4811 10.2695 78.1458 10.3542 77.8594 10.5234C77.5794 10.6862 77.3451 10.9206 77.1562 11.2266C76.974 11.526 76.8372 11.8841 76.7461 12.3008C76.6549 12.7174 76.6094 13.1797 76.6094 13.6875V14.0781C76.6094 14.5208 76.668 14.931 76.7852 15.3086C76.9089 15.6862 77.0879 16.015 77.3223 16.2949C77.5632 16.5684 77.8496 16.7832 78.1816 16.9395C78.5202 17.0892 78.9043 17.1641 79.334 17.1641C79.8743 17.1641 80.3626 17.0599 80.7988 16.8516C81.2415 16.6367 81.6257 16.321 81.9512 15.9043L83.25 17.252C83.0286 17.5775 82.7292 17.89 82.3516 18.1895C81.9805 18.4889 81.5312 18.7331 81.0039 18.9219C80.4766 19.1042 79.8678 19.1953 79.1777 19.1953ZM87.9277 4V19H85.3398V4H87.9277Z" fill="url(#paint0_linear_298_23)"/>
<rect x="0.25" y="0.25" width="23.5" height="23.5" rx="11.75" fill="url(#paint1_linear_298_23)" stroke="white" stroke-width="0.5"/>
<path d="M12.5492 10.4714C12.8491 10.6146 13.1103 10.8277 13.3108 11.0927C13.5113 11.3578 13.6453 11.6671 13.7014 11.9947C13.7576 12.3222 13.7343 12.6585 13.6336 12.9752C13.5328 13.2919 13.3575 13.5798 13.1225 13.8148L11.0455 15.8917C10.656 16.2812 10.1278 16.5 9.57693 16.5C9.02609 16.5 8.49782 16.2812 8.10832 15.8917C7.71882 15.5022 7.5 14.9739 7.5 14.4231C7.5 13.8722 7.71882 13.344 8.10832 12.9545L8.91924 12.1435M15.0808 11.8565L15.8917 11.0455C16.2812 10.656 16.5 10.1278 16.5 9.57693C16.5 9.02609 16.2812 8.49782 15.8917 8.10832C15.5022 7.71882 14.9739 7.5 14.4231 7.5C13.8722 7.5 13.344 7.71882 12.9545 8.10832L10.8775 10.1852C10.6425 10.4202 10.4672 10.7081 10.3664 11.0248C10.2657 11.3415 10.2424 11.6778 10.2986 12.0053C10.3547 12.3329 10.4887 12.6422 10.6892 12.9073C10.8897 13.1723 11.1509 13.3854 11.4508 13.5286" stroke="white" stroke-width="0.7" stroke-linecap="round" stroke-linejoin="round"/>
<defs>
<linearGradient id="paint0_linear_298_23" x1="58.5" y1="3" x2="58.5" y2="20" gradientUnits="userSpaceOnUse">
<stop stop-color="#D0D7DE"/>
<stop offset="1" stop-color="#404A58"/>
</linearGradient>
<linearGradient id="paint1_linear_298_23" x1="12" y1="0" x2="12" y2="24" gradientUnits="userSpaceOnUse">
<stop stop-color="#D0D7DE"/>
<stop offset="0.597516" stop-color="#7A838E"/>
<stop offset="1" stop-color="#404A58"/>
</linearGradient>
</defs>
</svg>
